HIERARCHY
ROOT Hips
{
	OFFSET 0.000000 0.000000 0.000000
	CHANNELS 6 Xposition Yposition Zposition Zrotation Yrotation Xrotation 
	JOINT LeftUpLeg_virtual
	{
		OFFSET 0.000000 0.000000 0.000000
		CHANNELS 3 Zrotation Yrotation Xrotation
		JOINT LeftUpLeg
		{
			OFFSET 10.205400 -3.823500 0.155100
			CHANNELS 3 Zrotation Yrotation Xrotation
			JOINT LeftLeg
			{
				OFFSET 0.708757 -12.982077 0.567790
				CHANNELS 3 Zrotation Yrotation Xrotation
				JOINT LeftFoot
				{
					OFFSET -0.708756 -10.717838 -2.184338
					CHANNELS 3 Zrotation Yrotation Xrotation
					JOINT LeftToeBase
					{
						OFFSET 0.108149 -7.191104 7.560241
						CHANNELS 3 Zrotation Yrotation Xrotation
						End Site
						{
							OFFSET 0.000000 0.000000 0.000000
						}
					}
				}
			}
		}
	}
	JOINT RightUpLeg_virtual
	{
		OFFSET 0.000000 0.000000 0.000000
		CHANNELS 3 Zrotation Yrotation Xrotation
		JOINT RightUpLeg
		{
			OFFSET -10.205400 -3.823500 0.005500
			CHANNELS 3 Zrotation Yrotation Xrotation
			JOINT RightLeg
			{
				OFFSET -0.708756 -12.982134 0.610632
				CHANNELS 3 Zrotation Yrotation Xrotation
				JOINT RightFoot
				{
					OFFSET 0.708754 -10.717769 -1.945823
					CHANNELS 3 Zrotation Yrotation Xrotation
					JOINT RightToeBase
					{
						OFFSET -0.108140 -7.191069 7.372968
						CHANNELS 3 Zrotation Yrotation Xrotation
						End Site
						{
							OFFSET 0.000000 0.000000 0.000000
						}
					}
				}
			}
		}
	}
	JOINT Spine_virtual
	{
		OFFSET 0.000000 0.000000 0.000000
		CHANNELS 3 Zrotation Yrotation Xrotation
		JOINT Spine
		{
			OFFSET 0.000000 6.876099 0.125700
			CHANNELS 3 Zrotation Yrotation Xrotation
			JOINT Spine1
			{
				OFFSET 0.000000 8.022060 0.146608
				CHANNELS 3 Zrotation Yrotation Xrotation
				JOINT Spine2
				{
					OFFSET 0.000000 9.168068 0.167552
					CHANNELS 3 Zrotation Yrotation Xrotation
					JOINT Neck_virtual
					{
						OFFSET 0.000000 0.000000 0.000000
						CHANNELS 3 Zrotation Yrotation Xrotation
						JOINT Neck
						{
							OFFSET 0.000000 10.314075 0.188496
							CHANNELS 3 Zrotation Yrotation Xrotation
							JOINT Head
							{
								OFFSET 0.000000 7.643700 -2.377400
								CHANNELS 3 Zrotation Yrotation Xrotation
								End Site
								{
									OFFSET 0.000000 0.000000 0.000000
								}
							}
						}
					}
					JOINT LeftShoulder_virtual
					{
						OFFSET 0.000000 0.000000 0.000000
						CHANNELS 3 Zrotation Yrotation Xrotation
						JOINT LeftShoulder
						{
							OFFSET 4.392200 8.824978 0.174984
							CHANNELS 3 Zrotation Yrotation Xrotation
							JOINT LeftArm
							{
								OFFSET 8.771219 -2.981674 -0.026999
								CHANNELS 3 Zrotation Yrotation Xrotation
								JOINT LeftForeArm
								{
									OFFSET 8.512804 0.000000 -0.000000
									CHANNELS 3 Zrotation Yrotation Xrotation
									JOINT LeftHand
									{
										OFFSET 18.484802 0.000000 -0.000000
										CHANNELS 3 Zrotation Yrotation Xrotation
										End Site
										{
											OFFSET 0.000000 0.000000 0.000000
										}
									}
								}
							}
						}
					}
					JOINT RightShoulder_virtual
					{
						OFFSET 0.000000 0.000000 0.000000
						CHANNELS 3 Zrotation Yrotation Xrotation
						JOINT RightShoulder
						{
							OFFSET -4.392200 8.824993 0.141379
							CHANNELS 3 Zrotation Yrotation Xrotation
							JOINT RightArm
							{
								OFFSET -8.771282 -2.981682 -0.094208
								CHANNELS 3 Zrotation Yrotation Xrotation
								JOINT RightForeArm
								{
									OFFSET -8.494598 0.000000 0.000000
									CHANNELS 3 Zrotation Yrotation Xrotation
									JOINT RightHand
									{
										OFFSET -18.483803 0.000000 0.000001
										CHANNELS 3 Zrotation Yrotation Xrotation
										End Site
										{
											OFFSET 0.000000 0.000000 0.000000
										}
									}
								}
							}
						}
					}
				}
			}
		}
	}
}
MOTION
Frames: 8
Frame Time: 0.033333
-27.286764 32.810215 83.711914 1.134219 56.403446 1.193210 -0.941325 -10.919308 13.611280 -18.374554 -12.588934 -25.726123 19.940744 3.057099 23.698970 -10.751061 -1.346043 1.614857 0.000000 0.000000 0.000000 5.119638 -8.783289 8.104841 -4.838649 6.205257 -53.389198 -5.980725 1.447369 16.149724 5.048593 15.133496 26.196094 0.000000 0.000000 0.000000 1.045737 -4.474492 0.573564 2.130277 8.102540 -10.730149 0.942116 -1.485876 7.449907 0.061532 0.064791 0.046617 1.545001 -0.183469 7.573263 7.034114 -4.120631 21.762653 0.000000 0.000000 0.000000 2.617645 0.716264 3.757564 -5.193155 -6.342997 -0.665503 -17.213900 17.592122 -45.266191 -17.858378 -56.822994 13.294368 0.000000 0.000000 0.000000 -1.378545 1.827729 2.927611 13.758957 10.306667 1.179377 24.345557 18.997988 31.303607 179.041019 71.424060 -172.397690 0.000000 0.000000 0.000000 
-26.397524 32.589001 85.077522 1.894654 59.914679 1.459533 -0.696095 -11.314792 12.971865 -18.401416 -12.372136 -23.549493 19.001018 3.317855 25.726018 -10.794427 -2.120930 1.179909 0.000000 0.000000 0.000000 6.157994 -8.316838 6.981949 -4.059318 6.880236 -51.317848 -5.974059 2.275082 17.538478 5.137695 16.064455 25.540765 0.000000 0.000000 0.000000 0.948377 -4.690086 0.233672 1.742427 7.714624 -10.765513 0.859304 -1.612054 7.819783 0.116552 -0.069786 -0.007527 1.643189 -0.269908 7.749845 8.243037 -4.706412 22.230092 0.000000 0.000000 0.000000 2.721677 0.661623 4.020508 -5.604487 -6.053670 -0.844614 -19.772535 18.900365 -45.026171 -18.603982 -58.343490 13.956666 0.000000 0.000000 0.000000 -1.460764 1.664029 3.024924 14.439459 10.063047 1.232228 24.953113 17.999335 33.256266 178.344654 71.534873 -173.204827 0.000000 0.000000 0.000000 
-25.471500 32.524380 86.408333 2.370843 63.451337 0.951679 -0.849267 -11.152242 12.666180 -17.812969 -11.923588 -21.011593 18.006166 3.604173 27.191536 -11.085672 -2.992533 1.519350 0.000000 0.000000 0.000000 6.942684 -7.674686 6.130313 -2.798330 7.771265 -48.779476 -5.766129 2.240059 19.141019 4.385116 16.196947 23.253304 0.000000 0.000000 0.000000 0.875417 -4.646542 0.549261 1.260993 7.293191 -10.739360 0.818062 -1.734901 8.245538 0.148058 -0.168812 -0.152916 1.718632 -0.394385 7.919442 9.231403 -4.919303 22.617514 0.000000 0.000000 0.000000 2.787706 0.598695 4.154907 -5.611967 -5.846615 -0.859108 -22.046420 20.088788 -45.369730 -19.626397 -59.464870 14.948690 0.000000 0.000000 0.000000 -1.463713 1.582886 3.003418 15.181680 9.754552 1.267299 24.938141 17.464681 34.563592 177.955033 71.694351 -173.719305 0.000000 0.000000 0.000000 
-24.487749 32.578228 87.719826 2.259089 66.748249 0.138860 -1.242410 -10.677384 12.301121 -15.810517 -11.389236 -18.920251 15.993672 3.341192 28.187074 -10.837689 -3.680605 2.424894 0.000000 0.000000 0.000000 7.413647 -7.228656 5.548971 -1.563264 7.872615 -45.793659 -5.569245 2.342130 20.028316 3.526776 16.154321 20.872787 0.000000 0.000000 0.000000 0.849081 -4.463977 0.958517 0.864843 6.774807 -10.756504 0.907693 -1.795962 8.443734 0.139518 -0.229378 -0.397702 1.743139 -0.270517 7.885594 9.790360 -5.259192 22.878122 0.000000 0.000000 0.000000 2.847889 0.669886 3.905999 -5.348690 -5.775441 -0.846113 -23.097883 20.967830 -46.038491 -20.249086 -59.628385 15.449799 0.000000 0.000000 0.000000 -1.424606 1.580516 2.669186 15.755561 9.270863 0.989897 24.508740 17.310971 34.474417 176.087167 71.702055 -175.713023 0.000000 0.000000 0.000000 
-23.496687 32.685421 89.002251 2.394956 70.170932 -0.238252 -0.870330 -10.379569 11.891142 -13.646910 -11.586111 -17.464686 13.387484 3.356218 29.321620 -11.536394 -4.877722 5.069013 0.000000 0.000000 0.000000 7.446002 -6.846728 4.797377 -0.446286 7.469483 -43.119524 -5.280265 2.430638 19.638286 2.547898 15.877062 18.573422 0.000000 0.000000 0.000000 0.649110 -4.329109 1.257637 0.492964 6.176610 -10.701396 1.043633 -1.813202 8.570030 0.167764 -0.259609 -0.593295 1.813537 -0.182901 7.793283 10.023432 -5.575628 22.698641 0.000000 0.000000 0.000000 2.946003 0.638748 3.720601 -4.762218 -6.046194 -0.951273 -23.176396 21.180541 -46.900911 -19.922579 -58.767071 14.976552 0.000000 0.000000 0.000000 -1.387742 1.366198 2.575104 16.119229 8.999781 0.459576 23.159930 17.933958 32.869411 175.334385 71.535904 -176.621903 0.000000 0.000000 0.000000 
-22.487152 32.792297 90.203575 2.898178 72.871500 0.703157 -1.357464 -9.673868 11.025401 -10.457133 -10.202074 -16.774987 12.326081 3.466847 31.709700 -12.440433 -5.805529 7.896969 0.000000 0.000000 0.000000 7.202123 -7.128673 4.598621 0.445996 6.900401 -39.913583 -4.739276 2.847644 18.832580 1.832118 15.900069 17.217783 0.000000 0.000000 0.000000 0.347481 -4.266294 0.929715 0.226028 5.733421 -10.898605 1.231279 -1.577900 8.403353 0.154436 -0.277965 -0.479440 1.951565 -0.038326 7.759142 9.961869 -5.348078 22.791050 0.000000 0.000000 0.000000 3.073196 0.738078 3.794107 -4.013273 -6.535396 -0.967776 -22.257225 20.788275 -47.878134 -18.957098 -56.972671 13.907387 0.000000 0.000000 0.000000 -1.213203 1.694472 2.647813 15.988836 8.867423 -0.287030 21.621401 18.730423 29.802561 174.612174 71.500025 -177.502628 0.000000 0.000000 0.000000 
-21.458086 32.834290 91.325905 3.445275 75.796044 1.838516 -1.741781 -9.268523 10.326322 -6.461694 -8.399924 -17.060619 11.534323 3.073528 36.414457 -12.648548 -6.234598 10.717371 0.000000 0.000000 0.000000 6.748935 -7.317622 4.329709 1.338736 6.251114 -37.188420 -4.094450 3.301199 17.765962 0.870705 15.817268 15.605502 0.000000 0.000000 0.000000 0.140315 -4.097576 0.435541 0.087987 5.097219 -10.990584 1.320535 -1.478882 8.361611 0.117505 -0.110768 -0.292946 2.153110 -0.123168 7.748457 9.646551 -5.329588 22.126505 0.000000 0.000000 0.000000 3.205533 0.837814 3.941738 -3.131915 -7.127078 -1.059368 -21.051601 19.800780 -48.857743 -18.406822 -55.247225 13.358585 0.000000 0.000000 0.000000 -1.042937 1.990612 2.664498 15.675735 8.778443 -0.954660 19.833215 19.544165 26.344764 175.056464 71.598435 -177.176296 0.000000 0.000000 0.000000 
-20.458242 32.782173 92.324272 3.709171 78.644745 2.793046 -1.970215 -9.161559 9.813602 -1.823562 -7.376946 -18.750596 11.287971 2.466816 43.610669 -11.600988 -5.932908 12.763665 0.000000 0.000000 0.000000 6.228689 -7.458987 4.283528 2.309174 5.466830 -34.901567 -3.419044 3.847824 17.161146 -0.217240 15.685721 13.746245 0.000000 0.000000 0.000000 0.023700 -3.865876 0.016265 0.159603 4.603999 -11.029715 1.459048 -1.393695 8.391494 0.120368 -0.042071 -0.137368 2.247995 -0.021837 7.688783 8.882710 -5.065521 21.174599 0.000000 0.000000 0.000000 3.214128 0.932468 3.916382 -2.397516 -7.862940 -1.020280 -19.964481 18.308633 -49.024379 -17.592197 -53.820525 12.571424 0.000000 0.000000 0.000000 -1.091633 2.014755 2.875232 15.091855 8.880865 -1.724636 18.849871 19.690254 23.683466 175.100697 71.831570 -177.253408 0.000000 0.000000 0.000000 
